<svg width="250" height="64" viewBox="0 0 250 64" fill="none" xmlns="http://www.w3.org/2000/svg">
<g clip-path="url(#clip0_234_23919)">
<path d="M71.8545 15.3156H80.3614L87.0901 31.386L93.8189 15.3156H102.329L87.5922 49.7941H86.5912L71.8545 15.3156Z" fill="#07698F"/>
<path d="M112.227 38.8951C112.227 40.8427 113.784 42.4002 115.674 42.4002C117.731 42.4002 119.01 41.2329 119.01 39.5091C119.01 37.005 115.729 36.2823 113.004 35.3388C107.388 33.3368 104.273 30.724 104.273 24.9962C104.273 19.2685 109.332 14.2091 115.617 14.2091C123.014 14.2091 126.516 18.9359 126.96 25.1082H119.285C119.285 23.2181 118.117 21.6606 115.837 21.6606C114.059 21.6606 112.332 22.716 112.332 24.8843C112.332 27.3884 115.39 27.8329 118.226 28.6676C124.178 30.4458 126.957 33.7846 126.957 39.0102C126.957 44.9043 121.952 49.7974 115.668 49.7974C108.383 49.7974 104.267 44.9043 104.267 38.8983H112.22L112.227 38.8951Z" fill="#4C4C4C"/>
<path d="M137.808 22.5465H130.356V15.3156H153.603V22.5465H146.04V48.6844H137.808V22.5465Z" fill="#4C4C4C"/>
<path d="M173.457 14.2059C183.966 14.2059 191.42 22.0476 191.42 32C191.42 41.9524 183.969 49.7941 173.457 49.7941C162.945 49.7941 155.493 41.9524 155.493 32C155.493 22.0476 162.89 14.2059 173.457 14.2059ZM173.457 42.0676C179.351 42.0676 183.134 37.619 183.134 32.0032C183.134 26.3874 179.354 21.9388 173.457 21.9388C167.56 21.9388 163.779 26.3874 163.779 32.0032C163.779 37.619 167.505 42.0676 173.457 42.0676Z" fill="#4C4C4C"/>
<path d="M197.091 15.3156H211.05C218.224 15.3156 222.896 19.6522 222.896 25.9364C222.896 31.7761 219.947 35.0574 215 36.279L224.009 48.6812H213.775L205.265 36.2247V48.6812H197.091V15.3156ZM211.828 29.7741C213.663 29.7741 214.885 27.8841 214.885 25.9364C214.885 23.9888 213.439 22.265 211.604 22.265H205.265V29.7741H211.828Z" fill="#4C4C4C"/>
<path d="M226.897 15.3156H248.973V22.5465H235.071V28.5525H247.918V35.6714H235.071V41.6774H249.584V48.6844H226.894V15.3156H226.897Z" fill="#4C4C4C"/>
<path fill-rule="evenodd" clip-rule="evenodd" d="M30.1127 22.4537L0.412109 9.89486L40.6216 64L74.7291 0L30.9378 12.2103L30.1127 22.4537Z" fill="#07698F"/>
<path fill-rule="evenodd" clip-rule="evenodd" d="M48.201 30.1036L30.1127 22.4538L0.412109 9.8949L40.6216 64L48.201 30.1036Z" fill="#0BABE0"/>
<path fill-rule="evenodd" clip-rule="evenodd" d="M48.2006 30.1035L30.9374 12.2103L30.1123 22.4537L48.2006 30.1035Z" fill="#004055"/>
</g>
<defs>
<clipPath id="clip0_234_23919">
<rect width="249.175" height="64" fill="white" transform="translate(0.412109)"/>
</clipPath>
</defs>
</svg>
